<?xml version="1.0" standalone="no"?>
<!DOCTYPE svg PUBLIC "-//W3C//DTD SVG 20010904//EN"
 "http://www.w3.org/TR/2001/REC-SVG-20010904/DTD/svg10.dtd">
<svg version="1.0" xmlns="http://www.w3.org/2000/svg"
 width="512.000000pt" height="512.000000pt" viewBox="0 0 512.000000 512.000000"
 preserveAspectRatio="xMidYMid meet">
<metadata>
Created by potrace 1.14, written by Peter Selinger 2001-2017
</metadata>
<g transform="translate(0.000000,512.000000) scale(0.100000,-0.100000)"
fill="#000000" stroke="none">
<path d="M940 5113 c-211 -37 -384 -211 -420 -420 -8 -50 -10 -243 -8 -674 4
-528 6 -616 22 -699 20 -104 65 -255 102 -338 l24 -54 47 35 c63 45 126 77
188 93 40 11 270 14 1187 14 1080 0 1142 -1 1250 -19 62 -11 121 -23 130 -26
13 -5 21 9 42 72 52 156 67 248 73 438 4 153 2 198 -15 300 -109 636 -582
1123 -1219 1257 -105 22 -126 22 -743 24 -349 1 -646 0 -660 -3z"/>
<path d="M3435 2923 c-137 -298 -420 -582 -726 -727 -129 -62 -261 -103 -404
-128 -156 -26 -439 -21 -577 11 -212 49 -409 137 -579 258 -106 76 -262 228
-329 321 -45 62 -145 222 -153 245 -8 23 -58 -37 -98 -118 -23 -47 -43 -107
-49 -145 -13 -87 -13 -1108 1 -1241 21 -213 65 -364 159 -554 210 -424 623
-732 1105 -821 91 -17 159 -19 780 -19 668 0 682 0 792 23 477 96 867 390
1082 815 189 372 218 785 86 1183 -116 349 -373 660 -700 847 -88 51 -267 126
-318 133 -32 5 -32 4 -72 -83z"/>
</g>
</svg>
