<svg xmlns="http://www.w3.org/2000/svg" xmlns:xlink= "http://www.w3.org/1999/xlink"
 width="192" height="192" viewBox="0 0 10 10">
  <defs>
    <path id="logo-path-1" d="M 4 0 H 2 A 1 1 0 0 0 1 1 V 3 A 3 3 0 0 0 4 6 A 3 3 0 0 0 4 0" />
    <path id="logo-path-2" d="M 4 4 H 2 A 1 1 0 0 0 1 5 V 7 A 3 3 0 0 0 4 10 H 6 A 3 3 0 0 0 6 4 H 4" />
    <mask id="logo-mask-1">
      <rect id="bg" x="0" y="0" width="100%" height="100%" fill="white"/>
      <use xlink:href="#logo-path-1" fill="black" />
    </mask>
    <mask id="logo-mask-2">
      <rect id="bg" x="0" y="0" width="100%" height="100%" fill="white"/>
      <use xlink:href="#logo-path-2" fill="black" />
    </mask>
    <mask id="logo-mask-3">
      <use xlink:href="#logo-path-2" fill="white" />
    </mask>
  </defs>
  <use xlink:href="#logo-path-1" mask="url(#logo-mask-2)" fill="#7C98FC" />
  <use xlink:href="#logo-path-2" mask="url(#logo-mask-1)" fill="#44D28E" />
  <use xlink:href="#logo-path-1" mask="url(#logo-mask-3)" fill="white" />
</svg>